# xmcd
#
# Track frame offsets:
#	150
#	56201
#	76571
#
# Disc length: 1351 seconds
#
# Revision: 0
# Processed by: cddbd v1.5.2PL0 Copyright (c) Steve Scherf et al.
# Submitted via: audiograbber 1.83.01
#
DISCID=19054503
DTITLE=Driftin - Soft Kill
DYEAR=2007
DGENRE=Rock
TTITLE0=Misty
TTITLE1=Frogs
TTITLE2=Soft Kill
EXTD=
EXTT0=
EXTT1=
EXTT2=
PLAYORDER=
